<svg width="50" height="50" viewBox="0 0 50 50" fill="none" xmlns="http://www.w3.org/2000/svg">
<rect width="50" height="50" rx="25" fill="white"/>
<path d="M33 34.8337H17C15.8954 34.8337 15 33.9383 15 32.8337V21.8827C15.0338 21.2116 15.3973 20.6006 15.971 20.2507L23.971 15.4507C24.6041 15.0711 25.3949 15.0711 26.028 15.4507L34.028 20.2507C34.6292 20.6135 34.9976 21.2636 35 21.9657V32.8337C35 33.9383 34.1046 34.8337 33 34.8337ZM17 22.7017V32.8337H33V22.7017L25 28.0347L17 22.7017ZM25 17.1657L18.316 21.1757L25 25.6317L31.683 21.1757L25 17.1657Z" fill="#2E3A59"/>
</svg>
