<svg width="50" height="50" viewBox="0 0 50 50" fill="none" xmlns="http://www.w3.org/2000/svg">
<rect width="50" height="50" rx="25" fill="white"/>
<path d="M31.9975 33C23.4659 33.0121 16.9909 26.4595 17 18.0025C17 17.4502 17.4477 17 18 17H20.6394C21.1349 17 21.5559 17.3641 21.6287 17.8543C21.8031 19.0292 22.1452 20.173 22.6445 21.2507L22.7472 21.4725C22.8901 21.7809 22.7933 22.1473 22.5167 22.3449C21.6993 22.9286 21.3869 24.1036 22.0237 25.0204C22.8228 26.1708 23.8301 27.1779 24.9803 27.9766C25.897 28.6132 27.0718 28.3009 27.6555 27.4836C27.8532 27.2069 28.2198 27.11 28.5284 27.2529L28.7492 27.3552C29.827 27.8545 30.9708 28.1966 32.1458 28.371C32.636 28.4437 33 28.8647 33 29.3603V32C33 32.5523 32.5512 33 31.9989 33L31.9975 33Z" fill="#2E3A59"/>
</svg>
